<?xml version="1.0" encoding="iso-8859-1"?>
<!-- Generator: Adobe Illustrator 19.1.0, SVG Export Plug-In . SVG Version: 6.00 Build 0)  -->
<svg version="1.1" id="Capa_1" xmlns="http://www.w3.org/2000/svg" xmlns:xlink="http://www.w3.org/1999/xlink" x="0px" y="0px"
	 viewBox="0 0 128.331 128.331" style="enable-background:new 0 0 128.331 128.331;" xml:space="preserve">
<g id="Balance">
	<g>
		<path d="M9.446,30.215c-0.221,0-0.4-0.18-0.4-0.4v-4.782c0-0.221,0.18-0.4,0.4-0.4s0.4,0.18,0.4,0.4v4.782
			C9.847,30.035,9.667,30.215,9.446,30.215z"/>
		<path d="M9.446,20.994c-0.221,0-0.4-0.18-0.4-0.4V7.626c0-0.221,0.18-0.4,0.4-0.4s0.4,0.18,0.4,0.4v12.968
			C9.847,20.814,9.667,20.994,9.446,20.994z"/>
		<path d="M18.651,30.383c-0.221,0-0.4-0.18-0.4-0.4V16.501c0-0.221,0.18-0.4,0.4-0.4s0.4,0.18,0.4,0.4v13.481
			C19.052,30.203,18.872,30.383,18.651,30.383z"/>
		<path d="M18.651,12.465c-0.221,0-0.4-0.18-0.4-0.4V7.794c0-0.221,0.18-0.4,0.4-0.4s0.4,0.18,0.4,0.4v4.271
			C19.052,12.285,18.872,12.465,18.651,12.465z"/>
		<path d="M27.691,30.215c-0.221,0-0.4-0.18-0.4-0.4v-8.877c0-0.221,0.18-0.4,0.4-0.4s0.4,0.18,0.4,0.4v8.877
			C28.092,30.035,27.912,30.215,27.691,30.215z"/>
		<path d="M27.691,16.901c-0.221,0-0.4-0.18-0.4-0.4V7.882c0-0.221,0.18-0.4,0.4-0.4s0.4,0.18,0.4,0.4v8.619
			C28.092,16.722,27.912,16.901,27.691,16.901z"/>
	</g>
	<path d="M9.446,25.432c-1.444,0-2.619-1.175-2.619-2.619s1.175-2.619,2.619-2.619s2.619,1.175,2.619,2.619
		S10.891,25.432,9.446,25.432z M9.446,20.994c-1.003,0-1.818,0.815-1.818,1.818s0.815,1.818,1.818,1.818s1.818-0.815,1.818-1.818
		S10.449,20.994,9.446,20.994z"/>
	<path d="M18.651,16.901c-1.444,0-2.619-1.175-2.619-2.619s1.175-2.619,2.619-2.619s2.619,1.175,2.619,2.619
		S20.096,16.901,18.651,16.901z M18.651,12.464c-1.003,0-1.818,0.815-1.818,1.818s0.815,1.818,1.818,1.818s1.818-0.815,1.818-1.818
		S19.654,12.464,18.651,12.464z"/>
	<path d="M27.691,21.339c-1.444,0-2.619-1.175-2.619-2.619s1.175-2.619,2.619-2.619s2.619,1.175,2.619,2.619
		S29.136,21.339,27.691,21.339z M27.691,16.901c-1.003,0-1.818,0.815-1.818,1.818s0.815,1.818,1.818,1.818s1.818-0.815,1.818-1.818
		S28.694,16.901,27.691,16.901z"/>
	<path d="M29.264,36.787H8.067C3.619,36.787,0,33.075,0,28.513V8.818c0-4.562,3.619-8.274,8.067-8.274h21.196
		c4.448,0,8.067,3.712,8.067,8.274v19.694C37.331,33.075,33.712,36.787,29.264,36.787z M8.067,1.345
		c-4.007,0-7.267,3.353-7.267,7.474v19.694c0,4.121,3.26,7.474,7.267,7.474h21.196c4.007,0,7.267-3.353,7.267-7.474V8.818
		c0-4.121-3.26-7.474-7.267-7.474H8.067z"/>
</g>
<g>
</g>
<g>
</g>
<g>
</g>
<g>
</g>
<g>
</g>
<g>
</g>
<g>
</g>
<g>
</g>
<g>
</g>
<g>
</g>
<g>
</g>
<g>
</g>
<g>
</g>
<g>
</g>
<g>
</g>
</svg>
